{"glyphs":{"0":{"ha":582,"x_min":68,"x_max":519,"o":"m 294 691 q 134 625 201 691 q 68 466 68 559 l 68 226 q 134 66 68 132 q 294 0 201 0 q 453 66 387 0 q 519 226 519 132 l 519 466 q 453 625 519 559 q 294 691 387 691 m 294 600 q 389 561 349 600 q 429 466 429 522 l 429 226 q 389 130 429 170 q 294 91 349 91 q 199 130 238 91 q 159 226 159 170 l 159 466 q 199 561 159 522 q 294 600 238 600 z "},"1":{"ha":339,"x_min":68,"x_max":265,"o":"m 176 0 l 265 0 l 265 549 q 223 650 265 608 q 123 692 182 692 l 123 692 l 68 692 l 68 602 l 123 602 q 160 587 144 602 q 176 549 176 572 l 176 0 z "},"2":{"ha":610,"x_min":64,"x_max":543,"o":"m 261 90 l 464 323 l 464 323 q 516 466 516 387 q 450 625 516 559 q 291 690 384 690 q 132 625 198 690 q 66 466 66 559 l 157 466 q 196 561 157 522 q 291 600 235 600 q 386 561 347 600 q 425 466 425 522 q 394 381 425 418 l 142 90 l 64 0 l 543 0 l 543 90 l 261 90 z "},"3":{"ha":576,"x_min":68,"x_max":518,"o":"m 414 414 q 458 525 458 462 q 410 642 458 593 q 293 690 361 690 q 197 659 240 690 q 138 580 155 629 q 128 525 128 551 l 218 525 q 223 550 218 537 q 250 585 231 572 q 293 600 269 600 q 345 578 323 600 q 367 525 367 556 q 345 473 367 494 q 293 451 323 451 l 218 451 l 218 359 l 293 359 q 388 320 349 359 q 427 225 427 281 q 388 130 427 170 q 293 91 349 91 q 216 115 251 91 q 168 176 183 138 q 159 225 159 201 l 68 225 q 84 143 68 184 q 165 40 109 79 q 293 0 222 0 q 452 66 386 0 q 518 225 518 132 q 490 334 518 283 q 414 414 462 384 z "},"4":{"ha":591,"x_min":68,"x_max":526,"o":"m 446 331 l 446 525 l 356 525 l 356 331 l 198 331 l 326 692 l 231 692 l 68 241 l 356 241 l 356 0 l 446 0 l 446 241 l 526 241 l 526 331 l 446 331 z "},"5":{"ha":584,"x_min":68,"x_max":518,"o":"m 293 450 q 227 439 262 450 l 285 602 l 468 602 l 468 690 l 222 690 l 86 315 l 193 315 q 293 359 233 359 q 388 320 349 359 q 427 225 427 281 q 388 130 427 170 q 293 91 349 91 q 198 130 237 91 q 159 225 159 170 l 68 225 q 134 66 68 132 q 293 0 200 0 q 452 66 386 0 q 518 225 518 132 q 452 385 518 318 q 293 450 386 450 z "},"6":{"ha":587,"x_min":68,"x_max":518,"o":"m 293 91 q 198 130 237 91 q 159 225 159 170 q 198 320 159 281 q 293 359 237 359 q 388 320 349 359 q 427 225 427 281 q 388 130 427 170 q 293 91 349 91 m 293 450 q 227 439 262 450 l 318 692 l 223 692 l 79 296 l 81 296 q 68 225 68 259 q 134 66 68 132 q 293 0 200 0 q 452 66 386 0 q 518 225 518 132 q 452 385 518 318 q 293 450 386 450 z "},"7":{"ha":543,"x_min":68,"x_max":483,"o":"m 68 692 l 68 602 l 355 602 l 137 0 l 232 0 l 483 692 l 68 692 z "},"8":{"ha":587,"x_min":68,"x_max":518,"o":"m 293 91 q 198 130 237 91 q 159 225 159 170 q 198 320 159 281 q 293 359 237 359 q 388 320 349 359 q 427 225 427 281 q 388 130 427 170 q 293 91 349 91 m 293 600 q 345 578 323 600 q 367 525 367 556 q 345 473 367 494 q 293 451 323 451 q 240 473 262 451 q 218 525 218 494 q 240 578 218 556 q 293 600 262 600 m 414 414 q 458 525 458 462 q 410 642 458 593 q 293 690 361 690 q 176 642 224 690 q 128 525 128 593 q 172 414 128 462 q 96 334 124 384 q 68 225 68 283 q 134 66 68 132 q 293 0 200 0 q 452 66 386 0 q 518 225 518 132 q 490 334 518 283 q 414 414 462 384 z "},"9":{"ha":584,"x_min":68,"x_max":518,"o":"m 159 467 q 198 562 159 522 q 293 601 237 601 q 388 562 349 601 q 427 467 427 522 q 388 372 427 411 q 293 332 349 332 q 198 372 237 332 q 159 467 159 411 m 518 467 q 452 626 518 559 q 293 692 386 692 q 134 626 200 692 q 68 467 68 559 q 134 307 68 374 q 293 241 200 241 q 359 253 323 241 l 268 0 l 363 0 l 506 395 l 505 395 q 518 467 518 433 z "}," ":{"ha":345,"x_min":0,"x_max":0,"o":""}," ":{"ha":345,"x_min":0,"x_max":0,"o":""},"!":{"ha":456,"x_min":0,"x_max":0,"o":""},"\"":{"ha":456,"x_min":0,"x_max":0,"o":""},"#":{"ha":906,"x_min":0,"x_max":0,"o":""},"$":{"ha":688,"x_min":0,"x_max":0,"o":""},"%":{"ha":1092,"x_min":0,"x_max":0,"o":""},"&":{"ha":1141,"x_min":0,"x_max":0,"o":""},"'":{"ha":235,"x_min":0,"x_max":0,"o":""},"(":{"ha":514,"x_min":0,"x_max":0,"o":""},")":{"ha":514,"x_min":0,"x_max":0,"o":""},"*":{"ha":694,"x_min":0,"x_max":0,"o":""},"+":{"ha":688,"x_min":0,"x_max":0,"o":""},",":{"ha":378,"x_min":0,"x_max":0,"o":""},"-":{"ha":454,"x_min":0,"x_max":0,"o":""},"­":{"ha":454,"x_min":0,"x_max":0,"o":""},".":{"ha":378,"x_min":0,"x_max":0,"o":""},"/":{"ha":386,"x_min":0,"x_max":0,"o":""},":":{"ha":301,"x_min":99,"x_max":189,"o":"m 99 279 l 189 279 l 189 366 l 99 366 l 99 279 m 99 104 l 189 104 l 189 191 l 99 191 l 99 104 z "},";":{"ha":378,"x_min":0,"x_max":0,"o":""},";":{"ha":378,"x_min":0,"x_max":0,"o":""},"<":{"ha":688,"x_min":0,"x_max":0,"o":""},"=":{"ha":688,"x_min":0,"x_max":0,"o":""},">":{"ha":688,"x_min":0,"x_max":0,"o":""},"?":{"ha":507,"x_min":0,"x_max":0,"o":""},"@":{"ha":1369,"x_min":0,"x_max":0,"o":""},"A":{"ha":610,"x_min":68,"x_max":549,"o":"m 308 90 q 201 134 245 90 q 157 240 157 178 q 201 347 157 302 q 308 391 245 391 q 415 347 370 391 q 459 240 459 302 q 415 134 459 178 q 308 90 370 90 m 549 240 q 478 410 549 340 q 308 481 408 481 q 138 410 209 481 q 68 240 68 340 q 138 71 68 141 q 308 0 209 0 q 459 55 392 0 l 459 1 l 549 1 l 549 240 z "},"B":{"ha":607,"x_min":66,"x_max":547,"o":"m 307 90 q 200 134 244 90 q 156 241 156 178 q 200 348 156 303 q 307 392 244 392 q 414 348 370 392 q 458 241 458 303 q 414 134 458 178 q 307 90 370 90 m 307 481 q 156 427 223 481 l 156 693 l 66 693 l 66 241 q 137 71 66 142 q 307 1 208 1 q 477 71 406 1 q 547 241 547 142 q 477 411 547 340 q 307 481 406 481 z "},"C":{"ha":574,"x_min":68,"x_max":524,"o":"m 309 90 q 201 134 245 90 q 157 240 157 178 q 201 347 157 302 q 309 391 245 391 q 438 317 393 391 l 512 366 q 427 449 479 418 q 309 481 372 481 q 138 410 209 481 q 68 240 68 340 q 138 71 68 141 q 309 0 209 0 q 431 29 371 0 q 524 106 492 58 l 450 156 q 389 108 430 127 q 309 90 349 90 z "},"D":{"ha":610,"x_min":68,"x_max":549,"o":"m 308 90 q 201 134 245 90 q 157 240 157 178 q 201 347 157 302 q 308 391 245 391 q 415 347 370 391 q 459 240 459 302 q 415 134 459 178 q 308 90 371 90 m 549 692 l 459 692 l 459 426 q 308 481 392 481 q 138 410 209 481 q 68 240 68 340 q 138 71 68 141 q 308 0 209 0 q 478 71 408 0 q 549 240 549 141 l 549 692 z "},"E":{"ha":610,"x_min":68,"x_max":549,"o":"m 309 391 q 398 361 358 391 q 452 285 437 332 l 165 285 q 218 361 180 332 q 309 391 258 391 m 545 196 q 549 240 549 218 q 478 410 549 340 q 309 481 408 481 q 138 410 209 481 q 68 240 68 340 q 138 71 68 141 q 309 0 209 0 q 431 29 371 0 q 524 106 492 58 l 450 156 q 389 108 431 127 q 309 90 349 90 q 218 119 258 90 q 165 195 180 149 l 545 196 z "},"F":{"ha":370,"x_min":68,"x_max":330,"o":"m 330 555 l 330 645 l 210 645 l 210 645 q 110 603 151 645 q 68 503 68 562 l 68 0 l 157 0 l 157 340 l 290 340 l 290 429 l 157 429 l 157 503 q 173 540 157 524 q 210 555 189 555 l 330 555 z "},"G":{"ha":610,"x_min":61,"x_max":542,"o":"m 301 89 q 195 133 239 89 q 151 239 151 177 q 195 347 151 302 q 301 391 239 391 q 408 347 364 391 q 452 239 452 302 q 408 133 452 177 q 301 89 364 89 m 542 239 q 471 410 542 339 q 301 480 401 480 q 132 410 202 480 q 61 239 61 339 q 132 70 61 140 q 301 -1 202 -1 q 452 54 385 -1 l 452 -1 q 408 -107 452 -63 q 301 -151 363 -151 l 301 -241 q 471 -170 401 -241 q 542 -1 542 -100 l 542 -1 l 542 239 z "},"H":{"ha":610,"x_min":68,"x_max":537,"o":"m 157 0 l 157 240 q 199 347 157 303 q 302 391 241 391 q 406 347 364 391 q 448 240 448 303 l 448 0 l 537 0 l 537 240 q 470 410 537 340 q 302 481 401 481 q 157 427 224 481 l 157 692 l 68 692 l 68 0 l 157 0 z "},"I":{"ha":235,"x_min":68,"x_max":157,"o":"m 68 0 l 157 0 l 157 481 l 68 481 l 68 0 m 68 558 l 157 558 l 157 645 l 68 645 l 68 558 z "},"J":{"ha":407,"x_min":68,"x_max":330,"o":"m 240 645 l 330 645 l 330 142 q 288 41 330 83 q 187 0 246 0 l 68 0 l 68 90 l 187 90 q 224 105 209 90 q 240 142 240 121 l 240 645 z "},"K":{"ha":527,"x_min":68,"x_max":463,"o":"m 401 417 l 338 481 l 157 326 l 157 708 l 68 708 l 68 0 l 157 0 l 157 208 l 400 0 l 463 64 l 224 267 l 401 417 z "},"L":{"ha":271,"x_min":68,"x_max":214,"o":"m 214 90 l 210 90 q 173 105 189 90 q 157 142 157 121 l 157 692 l 68 692 l 68 142 q 110 41 68 83 q 210 0 151 0 l 210 0 l 214 0 l 214 90 z "},"M":{"ha":814,"x_min":70,"x_max":746,"o":"m 159 0 l 159 290 q 189 361 159 332 q 261 391 219 391 q 333 361 303 391 q 363 290 363 332 l 363 0 l 452 0 l 452 290 q 482 361 452 332 q 555 391 513 391 q 627 361 597 391 q 656 290 656 332 l 656 0 l 746 0 l 746 290 q 690 425 746 368 q 555 481 633 481 q 408 412 465 481 q 261 481 351 481 q 125 425 182 481 q 70 290 70 368 l 70 0 l 159 0 z "},"N":{"ha":610,"x_min":68,"x_max":549,"o":"m 157 0 l 157 240 q 201 347 157 302 q 308 391 245 391 q 414 347 370 391 q 459 240 459 302 l 459 0 l 549 0 l 549 240 q 478 410 549 340 q 308 481 408 481 q 138 410 209 481 q 68 240 68 340 l 68 0 l 157 0 z "},"O":{"ha":610,"x_min":68,"x_max":549,"o":"m 308 391 q 201 347 245 391 q 157 240 157 302 q 201 134 157 178 q 308 90 245 90 q 414 134 370 90 q 459 240 459 178 q 414 347 459 302 q 308 391 370 391 m 308 0 q 138 71 209 0 q 68 240 68 141 q 138 410 68 340 q 308 481 209 481 q 478 410 408 481 q 549 240 549 340 q 478 71 549 141 q 308 0 408 0 z "},"P":{"ha":610,"x_min":68,"x_max":549,"o":"m 308 83 q 201 127 245 83 q 157 234 157 172 q 201 341 157 296 q 308 385 245 385 q 415 341 370 385 q 459 234 459 296 q 415 127 459 172 q 308 83 370 83 m 308 475 q 138 404 209 475 q 68 234 68 334 l 68 -218 l 157 -218 l 157 49 q 308 -6 224 -6 q 478 64 408 -6 q 549 234 549 135 q 478 404 549 334 q 308 475 408 475 z "},"Q":{"ha":610,"x_min":68,"x_max":549,"o":"m 308 83 q 201 127 245 83 q 157 234 157 172 q 201 341 157 296 q 308 385 245 385 q 415 341 370 385 q 459 234 459 296 q 415 127 459 172 q 308 83 370 83 m 549 234 q 478 404 549 334 q 308 475 408 475 q 138 404 209 475 q 68 234 68 334 q 138 64 68 135 q 308 -6 209 -6 q 459 49 392 -6 l 459 -218 l 549 -218 l 549 234 z "},"R":{"ha":371,"x_min":68,"x_max":308,"o":"m 308 481 q 138 410 209 481 q 68 240 68 340 l 68 0 l 157 0 l 157 240 q 201 347 157 302 q 308 391 245 391 l 308 481 z "},"S":{"ha":576,"x_min":68,"x_max":517,"o":"m 85 0 l 85 90 l 374 90 q 412 105 396 90 q 427 142 427 121 q 412 180 427 165 q 374 195 396 195 l 210 196 q 110 237 151 196 q 68 338 68 279 q 110 439 68 397 q 210 481 151 481 l 460 481 l 460 391 l 210 391 q 173 376 189 391 q 157 338 157 360 q 173 300 157 316 q 210 285 189 285 l 374 285 q 475 243 433 285 q 517 142 517 201 q 475 41 517 83 q 374 0 433 0 l 85 0 z "},"T":{"ha":407,"x_min":68,"x_max":356,"o":"m 211 90 q 173 105 189 90 q 157 142 157 121 l 157 391 l 316 391 l 316 481 l 157 481 l 157 645 l 68 645 l 68 142 q 110 41 68 83 q 211 0 152 0 l 356 0 l 356 90 l 211 90 z "},"U":{"ha":610,"x_min":68,"x_max":549,"o":"m 459 481 l 459 240 q 415 134 459 178 q 309 90 371 90 q 201 134 246 90 q 157 240 157 178 l 157 481 l 68 481 l 68 240 q 138 71 68 141 q 309 0 209 0 q 478 71 408 0 q 549 240 549 141 l 549 481 l 459 481 z "},"V":{"ha":678,"x_min":68,"x_max":615,"o":"m 517 481 l 353 131 q 342 123 350 123 q 330 131 334 123 l 167 481 l 68 481 l 271 45 q 342 0 292 0 q 412 45 391 0 l 615 481 l 517 481 z "},"W":{"ha":814,"x_min":70,"x_max":746,"o":"m 656 481 l 656 191 q 627 119 656 149 q 555 90 597 90 q 483 119 513 90 q 453 191 453 149 l 453 481 l 363 481 l 363 191 q 333 119 363 149 q 261 90 303 90 q 189 119 219 90 q 159 191 159 149 l 159 481 l 70 481 l 70 191 q 126 56 70 112 q 261 0 182 0 q 408 68 351 0 q 555 0 465 0 q 690 56 634 0 q 746 191 746 112 l 746 481 l 656 481 z "},"X":{"ha":610,"x_min":68,"x_max":557,"o":"m 369 240 l 557 481 l 444 481 l 313 313 l 181 481 l 68 481 l 256 240 l 68 0 l 181 0 l 313 168 l 444 0 l 557 0 l 369 240 z "},"Y":{"ha":610,"x_min":68,"x_max":537,"o":"m 537 475 l 448 475 l 448 234 q 406 127 448 171 q 302 83 364 83 q 199 127 241 83 q 157 234 157 171 l 157 475 l 68 475 l 68 234 q 135 64 68 134 q 302 -6 203 -6 q 448 45 383 -6 l 448 -6 q 404 -113 448 -69 q 296 -157 359 -157 l 296 -247 q 466 -177 396 -247 q 537 -7 536 -106 l 537 -7 l 537 475 z "},"Z":{"ha":762,"x_min":60,"x_max":537,"o":"m 211 90 l 513 391 q 524 448 537 416 q 475 481 511 481 l 81 481 l 81 391 l 386 391 l 84 90 q 73 33 60 64 q 121 0 86 0 l 528 0 l 528 90 l 211 90 z "},"[":{"ha":514,"x_min":0,"x_max":0,"o":""},"\\":{"ha":386,"x_min":0,"x_max":0,"o":""},"]":{"ha":514,"x_min":0,"x_max":0,"o":""},"^":{"ha":688,"x_min":0,"x_max":0,"o":""},"_":{"ha":694,"x_min":0,"x_max":0,"o":""},"`":{"ha":694,"x_min":0,"x_max":0,"o":""},"a":{"ha":610,"x_min":68,"x_max":549,"o":"m 308 90 q 201 134 245 90 q 157 240 157 178 q 201 347 157 302 q 308 391 245 391 q 415 347 370 391 q 459 240 459 302 q 415 134 459 178 q 308 90 370 90 m 549 240 q 478 410 549 340 q 308 481 408 481 q 138 410 209 481 q 68 240 68 340 q 138 71 68 141 q 308 0 209 0 q 459 55 392 0 l 459 1 l 549 1 l 549 240 z "},"b":{"ha":607,"x_min":66,"x_max":547,"o":"m 307 90 q 200 134 244 90 q 156 241 156 178 q 200 348 156 303 q 307 392 244 392 q 414 348 370 392 q 458 241 458 303 q 414 134 458 178 q 307 90 370 90 m 307 481 q 156 427 223 481 l 156 693 l 66 693 l 66 241 q 137 71 66 142 q 307 1 208 1 q 477 71 406 1 q 547 241 547 142 q 477 411 547 340 q 307 481 406 481 z "},"c":{"ha":574,"x_min":68,"x_max":524,"o":"m 309 90 q 201 134 245 90 q 157 240 157 178 q 201 347 157 302 q 309 391 245 391 q 438 317 393 391 l 512 366 q 427 449 479 418 q 309 481 372 481 q 138 410 209 481 q 68 240 68 340 q 138 71 68 141 q 309 0 209 0 q 431 29 371 0 q 524 106 492 58 l 450 156 q 389 108 430 127 q 309 90 349 90 z "},"d":{"ha":610,"x_min":68,"x_max":549,"o":"m 308 90 q 201 134 245 90 q 157 240 157 178 q 201 347 157 302 q 308 391 245 391 q 415 347 370 391 q 459 240 459 302 q 415 134 459 178 q 308 90 371 90 m 549 692 l 459 692 l 459 426 q 308 481 392 481 q 138 410 209 481 q 68 240 68 340 q 138 71 68 141 q 308 0 209 0 q 478 71 408 0 q 549 240 549 141 l 549 692 z "},"e":{"ha":610,"x_min":68,"x_max":549,"o":"m 309 391 q 398 361 358 391 q 452 285 437 332 l 165 285 q 218 361 180 332 q 309 391 258 391 m 545 196 q 549 240 549 218 q 478 410 549 340 q 309 481 408 481 q 138 410 209 481 q 68 240 68 340 q 138 71 68 141 q 309 0 209 0 q 431 29 371 0 q 524 106 492 58 l 450 156 q 389 108 431 127 q 309 90 349 90 q 218 119 258 90 q 165 195 180 149 l 545 196 z "},"f":{"ha":370,"x_min":68,"x_max":330,"o":"m 330 555 l 330 645 l 210 645 l 210 645 q 110 603 151 645 q 68 503 68 562 l 68 0 l 157 0 l 157 340 l 290 340 l 290 429 l 157 429 l 157 503 q 173 540 157 524 q 210 555 189 555 l 330 555 z "},"g":{"ha":610,"x_min":61,"x_max":542,"o":"m 301 89 q 195 133 239 89 q 151 239 151 177 q 195 347 151 302 q 301 391 239 391 q 408 347 364 391 q 452 239 452 302 q 408 133 452 177 q 301 89 364 89 m 542 239 q 471 410 542 339 q 301 480 401 480 q 132 410 202 480 q 61 239 61 339 q 132 70 61 140 q 301 -1 202 -1 q 452 54 385 -1 l 452 -1 q 408 -107 452 -63 q 301 -151 363 -151 l 301 -241 q 471 -170 401 -241 q 542 -1 542 -100 l 542 -1 l 542 239 z "},"h":{"ha":610,"x_min":68,"x_max":537,"o":"m 157 0 l 157 240 q 199 347 157 303 q 302 391 241 391 q 406 347 364 391 q 448 240 448 303 l 448 0 l 537 0 l 537 240 q 470 410 537 340 q 302 481 401 481 q 157 427 224 481 l 157 692 l 68 692 l 68 0 l 157 0 z "},"i":{"ha":235,"x_min":68,"x_max":157,"o":"m 68 0 l 157 0 l 157 481 l 68 481 l 68 0 m 68 558 l 157 558 l 157 645 l 68 645 l 68 558 z "},"j":{"ha":407,"x_min":68,"x_max":330,"o":"m 240 645 l 330 645 l 330 142 q 288 41 330 83 q 187 0 246 0 l 68 0 l 68 90 l 187 90 q 224 105 209 90 q 240 142 240 121 l 240 645 z "},"k":{"ha":527,"x_min":68,"x_max":463,"o":"m 401 417 l 338 481 l 157 326 l 157 708 l 68 708 l 68 0 l 157 0 l 157 208 l 400 0 l 463 64 l 224 267 l 401 417 z "},"l":{"ha":271,"x_min":68,"x_max":214,"o":"m 214 90 l 210 90 q 173 105 189 90 q 157 142 157 121 l 157 692 l 68 692 l 68 142 q 110 41 68 83 q 210 0 151 0 l 210 0 l 214 0 l 214 90 z "},"m":{"ha":814,"x_min":70,"x_max":746,"o":"m 159 0 l 159 290 q 189 361 159 332 q 261 391 219 391 q 333 361 303 391 q 363 290 363 332 l 363 0 l 452 0 l 452 290 q 482 361 452 332 q 555 391 513 391 q 627 361 597 391 q 656 290 656 332 l 656 0 l 746 0 l 746 290 q 690 425 746 368 q 555 481 633 481 q 408 412 465 481 q 261 481 351 481 q 125 425 182 481 q 70 290 70 368 l 70 0 l 159 0 z "},"n":{"ha":610,"x_min":68,"x_max":549,"o":"m 157 0 l 157 240 q 201 347 157 302 q 308 391 245 391 q 414 347 370 391 q 459 240 459 302 l 459 0 l 549 0 l 549 240 q 478 410 549 340 q 308 481 408 481 q 138 410 209 481 q 68 240 68 340 l 68 0 l 157 0 z "},"o":{"ha":610,"x_min":68,"x_max":549,"o":"m 308 391 q 201 347 245 391 q 157 240 157 302 q 201 134 157 178 q 308 90 245 90 q 414 134 370 90 q 459 240 459 178 q 414 347 459 302 q 308 391 370 391 m 308 0 q 138 71 209 0 q 68 240 68 141 q 138 410 68 340 q 308 481 209 481 q 478 410 408 481 q 549 240 549 340 q 478 71 549 141 q 308 0 408 0 z "},"p":{"ha":610,"x_min":68,"x_max":549,"o":"m 308 83 q 201 127 245 83 q 157 234 157 172 q 201 341 157 296 q 308 385 245 385 q 415 341 370 385 q 459 234 459 296 q 415 127 459 172 q 308 83 370 83 m 308 475 q 138 404 209 475 q 68 234 68 334 l 68 -218 l 157 -218 l 157 49 q 308 -6 224 -6 q 478 64 408 -6 q 549 234 549 135 q 478 404 549 334 q 308 475 408 475 z "},"q":{"ha":610,"x_min":68,"x_max":549,"o":"m 308 83 q 201 127 245 83 q 157 234 157 172 q 201 341 157 296 q 308 385 245 385 q 415 341 370 385 q 459 234 459 296 q 415 127 459 172 q 308 83 370 83 m 549 234 q 478 404 549 334 q 308 475 408 475 q 138 404 209 475 q 68 234 68 334 q 138 64 68 135 q 308 -6 209 -6 q 459 49 392 -6 l 459 -218 l 549 -218 l 549 234 z "},"r":{"ha":371,"x_min":68,"x_max":308,"o":"m 308 481 q 138 410 209 481 q 68 240 68 340 l 68 0 l 157 0 l 157 240 q 201 347 157 302 q 308 391 245 391 l 308 481 z "},"s":{"ha":576,"x_min":68,"x_max":517,"o":"m 85 0 l 85 90 l 374 90 q 412 105 396 90 q 427 142 427 121 q 412 180 427 165 q 374 195 396 195 l 210 196 q 110 237 151 196 q 68 338 68 279 q 110 439 68 397 q 210 481 151 481 l 460 481 l 460 391 l 210 391 q 173 376 189 391 q 157 338 157 360 q 173 300 157 316 q 210 285 189 285 l 374 285 q 475 243 433 285 q 517 142 517 201 q 475 41 517 83 q 374 0 433 0 l 85 0 z "},"t":{"ha":407,"x_min":68,"x_max":356,"o":"m 211 90 q 173 105 189 90 q 157 142 157 121 l 157 391 l 316 391 l 316 481 l 157 481 l 157 645 l 68 645 l 68 142 q 110 41 68 83 q 211 0 152 0 l 356 0 l 356 90 l 211 90 z "},"u":{"ha":610,"x_min":68,"x_max":549,"o":"m 459 481 l 459 240 q 415 134 459 178 q 309 90 371 90 q 201 134 246 90 q 157 240 157 178 l 157 481 l 68 481 l 68 240 q 138 71 68 141 q 309 0 209 0 q 478 71 408 0 q 549 240 549 141 l 549 481 l 459 481 z "},"v":{"ha":678,"x_min":68,"x_max":615,"o":"m 517 481 l 353 131 q 342 123 350 123 q 330 131 334 123 l 167 481 l 68 481 l 271 45 q 342 0 292 0 q 412 45 391 0 l 615 481 l 517 481 z "},"w":{"ha":814,"x_min":70,"x_max":746,"o":"m 656 481 l 656 191 q 627 119 656 149 q 555 90 597 90 q 483 119 513 90 q 453 191 453 149 l 453 481 l 363 481 l 363 191 q 333 119 363 149 q 261 90 303 90 q 189 119 219 90 q 159 191 159 149 l 159 481 l 70 481 l 70 191 q 126 56 70 112 q 261 0 182 0 q 408 68 351 0 q 555 0 465 0 q 690 56 634 0 q 746 191 746 112 l 746 481 l 656 481 z "},"x":{"ha":610,"x_min":68,"x_max":557,"o":"m 369 240 l 557 481 l 444 481 l 313 313 l 181 481 l 68 481 l 256 240 l 68 0 l 181 0 l 313 168 l 444 0 l 557 0 l 369 240 z "},"y":{"ha":610,"x_min":68,"x_max":537,"o":"m 537 475 l 448 475 l 448 234 q 406 127 448 171 q 302 83 364 83 q 199 127 241 83 q 157 234 157 171 l 157 475 l 68 475 l 68 234 q 135 64 68 134 q 302 -6 203 -6 q 448 45 383 -6 l 448 -6 q 404 -113 448 -69 q 296 -157 359 -157 l 296 -247 q 466 -177 396 -247 q 537 -7 536 -106 l 537 -7 l 537 475 z "},"z":{"ha":762,"x_min":60,"x_max":537,"o":"m 211 90 l 513 391 q 524 448 537 416 q 475 481 511 481 l 81 481 l 81 391 l 386 391 l 84 90 q 73 33 60 64 q 121 0 86 0 l 528 0 l 528 90 l 211 90 z "},"{":{"ha":688,"x_min":0,"x_max":20309,"o":"m 19491 1265 l 19439 1265 l 19439 1044 q 19392 925 19439 974 q 19276 876 19344 876 q 19160 925 19208 876 q 19113 1044 19113 974 l 19113 1265 l 19061 1265 l 19061 1044 q 19123 888 19061 951 q 19276 823 19185 823 q 19409 871 19350 823 l 19439 895 l 19439 805 q 19395 692 19439 741 q 19288 637 19352 644 l 19288 585 q 19432 654 19373 591 q 19491 804 19491 718 l 19491 1040 l 19491 1265 m 6500 823 l 6552 823 l 6552 1266 l 6500 1266 l 6500 823 m 6500 1379 l 6552 1379 l 6552 1429 l 6500 1429 l 6500 1379 m 5798 1266 q 5665 1217 5726 1266 l 5636 1193 l 5636 1477 l 5583 1477 l 5583 823 l 5636 823 l 5636 1044 q 5683 1164 5636 1116 q 5798 1213 5731 1213 q 5914 1164 5867 1213 q 5961 1044 5961 1116 l 5961 823 l 6014 823 l 6014 1044 q 5952 1202 6014 1138 q 5798 1266 5889 1266 m 4956 876 q 4837 926 4886 876 q 4788 1044 4788 975 q 4837 1164 4788 1114 q 4956 1213 4886 1213 q 5075 1164 5026 1213 q 5124 1044 5124 1114 q 5075 926 5124 975 q 4956 876 5026 876 m 4956 1265 q 4800 1201 4865 1265 q 4735 1044 4735 1136 q 4800 888 4735 953 q 4956 823 4865 823 q 5095 873 5033 823 l 5124 898 l 5124 806 q 5081 693 5124 741 q 4974 638 5037 645 l 4974 585 q 5118 655 5060 592 q 5177 805 5177 719 l 5177 1044 q 5113 1201 5177 1136 q 4956 1265 5048 1265 m 11120 876 q 11001 926 11050 876 q 10952 1044 10952 975 q 11001 1164 10952 1114 q 11120 1213 11050 1213 q 11239 1164 11190 1213 q 11288 1044 11288 1114 q 11239 926 11288 975 q 11120 876 11190 876 m 11120 1266 q 10963 1201 11028 1266 q 10899 1044 10899 1136 q 10963 888 10899 953 q 11120 823 11028 823 q 11276 888 11211 823 q 11341 1044 11341 953 q 11276 1201 11341 1136 q 11120 1266 11211 1266 m 14114 1071 q 14064 1092 14084 1071 q 14043 1142 14043 1113 q 14064 1192 14043 1171 q 14114 1213 14084 1213 l 14344 1213 l 14344 1266 l 14114 1266 q 14027 1230 14063 1266 q 13990 1142 13990 1193 q 14027 1055 13990 1091 q 14114 1019 14063 1019 l 14277 1019 q 14327 998 14306 1018 q 14348 947 14348 977 q 14327 897 14348 918 q 14277 876 14306 876 l 14007 876 l 14007 823 l 14277 823 q 14364 860 14328 823 q 14401 947 14401 896 q 14364 1035 14401 998 q 14277 1071 14328 1071 l 14114 1071 m 14876 1213 l 15034 1213 l 15034 1266 l 14876 1266 l 14876 1429 l 14823 1429 l 14823 947 q 14859 860 14823 896 q 14947 823 14896 823 l 15073 823 l 15073 876 l 14947 876 q 14897 897 14918 876 q 14876 947 14876 918 l 14876 1213 m 10278 1266 q 10121 1201 10186 1266 q 10056 1044 10056 1136 l 10056 823 l 10109 823 l 10109 1044 q 10158 1164 10109 1114 q 10278 1213 10208 1213 q 10396 1164 10347 1213 q 10446 1044 10446 1114 l 10446 823 l 10499 823 l 10499 1044 q 10434 1201 10499 1136 q 10278 1266 10369 1266 m 15559 1266 l 15506 1266 l 15506 1044 q 15570 888 15506 953 q 15727 823 15635 823 q 15883 888 15818 823 q 15948 1044 15948 953 l 15948 1266 l 15895 1266 l 15895 1044 q 15845 926 15895 975 q 15727 876 15796 876 q 15607 926 15657 876 q 15559 1044 15559 975 l 15559 1266 m 13380 823 l 13432 823 l 13432 1044 q 13476 1158 13432 1109 q 13582 1212 13519 1205 l 13582 1265 q 13439 1195 13497 1258 q 13380 1044 13380 1131 l 13380 823 m 1076 876 q 958 926 1007 876 q 908 1044 908 975 q 958 1164 908 1114 q 1076 1213 1007 1213 q 1196 1164 1146 1213 q 1245 1044 1245 1114 q 1196 926 1245 975 q 1076 876 1146 876 m 1076 1266 q 938 1215 1000 1266 l 908 1192 l 908 1477 l 855 1477 l 855 1045 q 920 888 855 954 q 1076 823 985 823 q 1233 888 1168 823 q 1298 1044 1298 954 q 1233 1201 1298 1136 q 1076 1266 1168 1266 m 2917 1044 q 2868 926 2917 975 q 2749 876 2818 876 q 2630 926 2679 876 q 2580 1044 2580 975 q 2630 1164 2580 1114 q 2749 1213 2679 1213 q 2868 1164 2818 1213 q 2917 1044 2917 1114 m 2528 1044 q 2593 888 2528 954 q 2749 823 2657 823 q 2905 888 2840 823 q 2970 1044 2970 954 l 2970 1477 l 2917 1477 l 2917 1192 l 2888 1215 q 2749 1266 2826 1266 q 2593 1201 2657 1266 q 2528 1044 2528 1136 m 221 876 q 102 926 152 876 q 53 1044 53 975 q 102 1164 53 1114 q 221 1213 152 1213 q 340 1164 291 1213 q 390 1044 390 1114 q 340 926 389 975 q 221 876 290 876 m 221 1266 q 65 1201 130 1266 q 0 1044 0 1136 q 65 888 0 953 q 221 823 130 823 q 360 874 298 823 l 389 898 l 389 823 l 442 823 l 443 1044 q 378 1201 443 1136 q 221 1266 313 1266 m 9479 1265 q 9347 1204 9398 1265 l 9332 1187 l 9319 1204 q 9186 1265 9266 1265 q 9064 1215 9115 1265 q 9014 1093 9014 1164 l 9014 823 l 9067 823 l 9067 1093 q 9102 1178 9067 1143 q 9186 1213 9137 1213 q 9271 1178 9236 1213 q 9306 1094 9306 1143 l 9306 823 l 9359 823 l 9359 1094 q 9394 1178 9359 1143 q 9479 1213 9429 1213 q 9563 1178 9528 1213 q 9598 1093 9598 1143 l 9598 823 l 9651 823 l 9651 1093 q 9600 1215 9651 1164 q 9479 1265 9550 1265 m 17566 1265 l 17513 1265 l 17513 996 q 17478 911 17513 946 q 17394 876 17443 876 q 17309 911 17344 876 q 17274 996 17274 946 l 17274 1265 l 17221 1265 l 17221 996 q 17272 874 17221 924 q 17394 823 17322 823 q 17526 885 17474 823 l 17539 901 l 17554 885 q 17686 823 17605 823 q 17807 874 17757 823 q 17858 996 17858 924 l 17858 1265 l 17805 1265 l 17805 996 q 17770 911 17805 946 q 17686 876 17735 876 q 17601 911 17636 876 q 17566 996 17567 946 l 17566 1265 m 3733 1071 l 3398 1071 l 3406 1095 q 3466 1180 3422 1147 q 3566 1213 3510 1213 q 3665 1180 3621 1213 q 3726 1095 3709 1147 l 3733 1071 m 3566 1266 q 3409 1201 3474 1266 q 3345 1044 3345 1136 q 3409 888 3345 954 q 3566 823 3474 823 q 3672 846 3619 823 q 3755 907 3723 869 l 3711 937 q 3566 876 3656 876 q 3466 909 3510 876 q 3406 995 3422 941 l 3398 1018 l 3786 1019 q 3787 1044 3787 1031 q 3722 1201 3787 1136 q 3566 1266 3657 1266 m 8539 1477 l 8487 1477 l 8487 947 q 8518 865 8487 900 q 8596 824 8550 829 l 8596 878 q 8556 902 8571 883 q 8539 947 8539 922 l 8539 1477 m 11962 876 q 11844 926 11893 876 q 11794 1044 11794 975 q 11844 1164 11794 1114 q 11962 1213 11893 1213 q 12082 1164 12032 1213 q 12130 1044 12130 1114 q 12082 926 12130 975 q 11962 876 12032 876 m 11962 1265 q 11807 1202 11871 1265 q 11741 1047 11742 1138 l 11741 612 l 11794 612 l 11794 898 l 11824 874 q 11962 823 11886 823 q 12119 888 12054 823 q 12183 1044 12183 953 q 12119 1201 12183 1136 q 11962 1265 12054 1265 m 12767 876 q 12647 926 12697 876 q 12598 1044 12598 975 q 12647 1164 12598 1114 q 12767 1213 12697 1213 q 12885 1164 12836 1213 q 12935 1044 12935 1114 q 12885 926 12935 975 q 12767 876 12836 876 m 12767 1265 q 12610 1201 12675 1265 q 12545 1044 12545 1136 q 12610 888 12545 953 q 12767 823 12675 823 q 12906 874 12843 823 l 12935 898 l 12935 612 l 12988 612 l 12988 1046 q 12922 1202 12987 1137 q 12767 1265 12857 1265 m 4330 1429 q 4243 1393 4279 1429 q 4207 1305 4207 1356 l 4206 823 l 4259 823 l 4259 1162 l 4391 1162 l 4391 1215 l 4259 1215 l 4259 1305 q 4280 1356 4259 1335 q 4330 1376 4301 1376 l 4430 1376 l 4430 1429 l 4330 1429 m 6987 713 l 6987 660 l 7088 660 q 7175 696 7139 660 q 7212 784 7212 732 l 7212 1265 l 7159 1265 l 7159 784 q 7138 734 7159 755 q 7088 713 7117 713 l 6987 713 m 1750 1044 q 1799 1164 1750 1114 q 1919 1213 1849 1213 q 2052 1145 2002 1213 l 2096 1175 q 1919 1266 2030 1266 q 1762 1201 1827 1266 q 1697 1044 1697 1136 q 1762 888 1697 954 q 1919 823 1827 823 q 2024 846 1972 823 q 2108 907 2076 869 l 2063 937 q 1919 876 2009 876 q 1799 926 1849 876 q 1750 1044 1750 975 m 20294 1208 q 20300 1244 20309 1223 q 20269 1265 20292 1265 l 19895 1265 l 19895 1213 l 20224 1213 l 19893 882 q 19885 844 19876 865 q 19916 823 19894 823 l 20303 823 l 20303 876 l 19962 876 l 20294 1208 m 16422 1266 l 16364 1266 l 16554 857 q 16608 823 16570 823 q 16661 857 16645 823 l 16852 1266 l 16793 1266 l 16622 899 q 16608 890 16618 890 q 16593 899 16597 890 l 16422 1266 m 18678 1265 l 18611 1265 l 18472 1088 l 18333 1265 l 18266 1265 l 18438 1044 l 18265 823 l 18333 823 l 18472 1002 l 18611 823 l 18678 823 l 18505 1044 l 18678 1265 m 8001 1266 l 7920 1266 l 7715 1091 l 7715 1492 l 7663 1492 l 7663 823 l 7715 823 l 7715 1051 l 7981 823 l 8063 823 l 7772 1071 l 8001 1266 z "},"|":{"ha":688,"x_min":0,"x_max":0,"o":""},"}":{"ha":688,"x_min":0,"x_max":0,"o":""},"~":{"ha":688,"x_min":0,"x_max":0,"o":""},"¡":{"ha":456,"x_min":0,"x_max":0,"o":""},"¢":{"ha":772,"x_min":0,"x_max":0,"o":""},"£":{"ha":688,"x_min":0,"x_max":0,"o":""},"¤":{"ha":688,"x_min":0,"x_max":0,"o":""},"¥":{"ha":856,"x_min":0,"x_max":0,"o":""},"¦":{"ha":688,"x_min":0,"x_max":0,"o":""},"§":{"ha":688,"x_min":0,"x_max":0,"o":""},"¨":{"ha":694,"x_min":0,"x_max":0,"o":""},"©":{"ha":1135,"x_min":0,"x_max":0,"o":""},"ª":{"ha":439,"x_min":0,"x_max":0,"o":""},"«":{"ha":640,"x_min":0,"x_max":0,"o":""},"¬":{"ha":688,"x_min":0,"x_max":0,"o":""},"®":{"ha":1135,"x_min":0,"x_max":0,"o":""},"¯":{"ha":454,"x_min":0,"x_max":0,"o":""},"°":{"ha":457,"x_min":0,"x_max":0,"o":""},"±":{"ha":688,"x_min":0,"x_max":0,"o":""},"²":{"ha":688,"x_min":0,"x_max":0,"o":""},"³":{"ha":688,"x_min":0,"x_max":0,"o":""},"´":{"ha":694,"x_min":0,"x_max":0,"o":""},"µ":{"ha":800,"x_min":0,"x_max":0,"o":""},"¶":{"ha":694,"x_min":63,"x_max":630,"o":"m 630 973 l 630 926 l 544 926 l 544 0 l 488 0 l 488 926 l 376 926 l 376 0 l 319 0 l 319 500 q 132 570 201 506 q 63 736 63 634 q 136 908 63 843 q 330 973 209 973 l 630 973 z "},"·":{"ha":345,"x_min":87,"x_max":257,"o":"m 98 502 l 154 559 q 174 568 164 568 q 195 557 182 568 l 249 499 q 257 479 257 488 q 248 458 257 469 l 193 399 q 174 385 180 385 q 154 395 163 385 l 94 463 q 87 481 87 472 q 98 502 87 491 z "},"∙":{"ha":345,"x_min":87,"x_max":257,"o":"m 98 502 l 154 559 q 174 568 164 568 q 195 557 182 568 l 249 499 q 257 479 257 488 q 248 458 257 469 l 193 399 q 174 385 180 385 q 154 395 163 385 l 94 463 q 87 481 87 472 q 98 502 87 491 z "},"¸":{"ha":694,"x_min":244,"x_max":521,"o":"m 244 -197 q 347 -232 302 -232 q 411 -217 392 -232 q 431 -172 431 -203 q 397 -129 431 -142 q 328 -118 370 -118 q 305 -119 317 -118 l 338 0 l 380 0 l 355 -71 q 397 -67 377 -68 q 488 -95 456 -67 q 521 -172 521 -122 q 481 -253 521 -223 q 372 -283 441 -283 q 244 -262 298 -283 l 244 -197 z "},"¹":{"ha":688,"x_min":0,"x_max":0,"o":""},"º":{"ha":487,"x_min":0,"x_max":0,"o":""},"»":{"ha":640,"x_min":68,"x_max":522,"o":"m 78 119 l 68 119 l 68 144 l 208 325 l 68 505 l 68 530 l 78 530 l 310 325 l 78 119 m 290 119 l 281 119 l 281 144 l 420 325 l 281 505 l 281 530 l 290 530 l 522 325 l 290 119 z "},"¼":{"ha":1158,"x_min":0,"x_max":0,"o":""},"½":{"ha":1332,"x_min":0,"x_max":0,"o":""},"¾":{"ha":1158,"x_min":0,"x_max":0,"o":""},"¿":{"ha":507,"x_min":0,"x_max":0,"o":""},"À":{"ha":1044,"x_min":0,"x_max":0,"o":""},"Á":{"ha":1044,"x_min":0,"x_max":0,"o":""},"Â":{"ha":1044,"x_min":0,"x_max":0,"o":""},"Ã":{"ha":1044,"x_min":0,"x_max":0,"o":""},"Ä":{"ha":1044,"x_min":0,"x_max":0,"o":""},"Å":{"ha":1044,"x_min":0,"x_max":0,"o":""},"Æ":{"ha":1436,"x_min":0,"x_max":0,"o":""},"Ç":{"ha":949,"x_min":0,"x_max":0,"o":""},"È":{"ha":781,"x_min":0,"x_max":0,"o":""},"É":{"ha":781,"x_min":0,"x_max":0,"o":""},"Ê":{"ha":781,"x_min":0,"x_max":0,"o":""},"Ë":{"ha":781,"x_min":0,"x_max":0,"o":""},"Ì":{"ha":446,"x_min":0,"x_max":0,"o":""},"Í":{"ha":446,"x_min":0,"x_max":0,"o":""},"Î":{"ha":446,"x_min":0,"x_max":0,"o":""},"Ï":{"ha":446,"x_min":0,"x_max":0,"o":""},"Ð":{"ha":1029,"x_min":0,"x_max":0,"o":""},"Ñ":{"ha":1054,"x_min":0,"x_max":0,"o":""},"Ò":{"ha":1095,"x_min":0,"x_max":0,"o":""},"Ó":{"ha":1095,"x_min":0,"x_max":0,"o":""},"Ô":{"ha":1095,"x_min":0,"x_max":0,"o":""},"Õ":{"ha":1095,"x_min":0,"x_max":0,"o":""},"Ö":{"ha":1095,"x_min":0,"x_max":0,"o":""},"×":{"ha":688,"x_min":109,"x_max":578,"o":"m 344 419 l 176 252 l 109 319 l 277 486 l 109 654 l 176 721 l 344 553 l 512 721 l 578 654 l 411 486 l 578 319 l 511 252 l 344 419 z "},"Ø":{"ha":1095,"x_min":0,"x_max":0,"o":""},"Ù":{"ha":1018,"x_min":0,"x_max":0,"o":""},"Ú":{"ha":1018,"x_min":0,"x_max":0,"o":""},"Û":{"ha":1018,"x_min":0,"x_max":0,"o":""},"Ü":{"ha":1018,"x_min":0,"x_max":0,"o":""},"Ý":{"ha":836,"x_min":0,"x_max":0,"o":""},"Þ":{"ha":760,"x_min":0,"x_max":0,"o":""},"ß":{"ha":848,"x_min":0,"x_max":0,"o":""},"à":{"ha":625,"x_min":0,"x_max":0,"o":""},"á":{"ha":625,"x_min":0,"x_max":0,"o":""},"â":{"ha":625,"x_min":0,"x_max":0,"o":""},"ã":{"ha":625,"x_min":0,"x_max":0,"o":""},"ä":{"ha":625,"x_min":0,"x_max":0,"o":""},"å":{"ha":625,"x_min":0,"x_max":0,"o":""},"æ":{"ha":986,"x_min":0,"x_max":0,"o":""},"ç":{"ha":614,"x_min":0,"x_max":0,"o":""},"è":{"ha":616,"x_min":0,"x_max":0,"o":""},"é":{"ha":616,"x_min":0,"x_max":0,"o":""},"ê":{"ha":616,"x_min":0,"x_max":0,"o":""},"ë":{"ha":616,"x_min":0,"x_max":0,"o":""},"ì":{"ha":349,"x_min":0,"x_max":0,"o":""},"í":{"ha":349,"x_min":0,"x_max":0,"o":""},"î":{"ha":349,"x_min":0,"x_max":0,"o":""},"ï":{"ha":349,"x_min":0,"x_max":0,"o":""},"ð":{"ha":772,"x_min":0,"x_max":0,"o":""},"ñ":{"ha":751,"x_min":0,"x_max":0,"o":""},"ò":{"ha":685,"x_min":0,"x_max":0,"o":""},"ó":{"ha":685,"x_min":0,"x_max":0,"o":""},"ô":{"ha":685,"x_min":0,"x_max":0,"o":""},"õ":{"ha":685,"x_min":0,"x_max":0,"o":""},"ö":{"ha":685,"x_min":0,"x_max":0,"o":""},"÷":{"ha":688,"x_min":0,"x_max":0,"o":""},"ø":{"ha":685,"x_min":0,"x_max":0,"o":""},"ù":{"ha":718,"x_min":0,"x_max":0,"o":""},"ú":{"ha":718,"x_min":0,"x_max":0,"o":""},"û":{"ha":718,"x_min":0,"x_max":0,"o":""},"ü":{"ha":718,"x_min":0,"x_max":0,"o":""},"ý":{"ha":589,"x_min":0,"x_max":0,"o":""},"þ":{"ha":685,"x_min":0,"x_max":0,"o":""},"ÿ":{"ha":589,"x_min":0,"x_max":0,"o":""},"ı":{"ha":349,"x_min":13,"x_max":321,"o":"m 222 151 q 290 34 222 34 l 321 34 l 321 0 l 22 0 l 22 34 l 53 34 q 121 151 121 34 l 121 444 q 45 496 121 496 l 13 496 l 13 526 q 190 650 163 573 l 222 650 l 222 151 z "},"ˆ":{"ha":694,"x_min":150,"x_max":545,"o":"m 150 732 l 307 972 l 387 972 l 545 732 l 505 732 l 347 878 l 189 732 l 150 732 z "},"ˇ":{"ha":694,"x_min":150,"x_max":545,"o":"m 150 972 l 189 972 l 347 827 l 505 972 l 545 972 l 387 731 l 307 731 l 150 972 z "},"ˉ":{"ha":694,"x_min":172,"x_max":522,"o":"m 172 810 l 172 895 l 522 895 l 522 810 l 172 810 z "},"˘":{"ha":694,"x_min":149,"x_max":545,"o":"m 149 915 l 183 915 q 234 842 195 865 q 347 819 273 819 q 460 842 421 819 q 510 915 498 865 l 545 915 q 481 778 531 825 q 347 732 431 732 q 214 779 264 732 q 149 915 163 825 z "},"˙":{"ha":694,"x_min":277,"x_max":422,"o":"m 286 874 l 333 923 q 342 929 337 927 q 351 931 347 931 q 360 929 355 931 q 368 923 364 927 l 416 871 q 421 865 420 869 q 422 855 422 861 q 420 845 422 849 q 415 837 419 841 l 367 785 q 356 776 359 778 q 351 774 353 774 q 340 776 345 774 q 333 782 336 778 l 282 841 q 278 847 279 844 q 277 857 277 851 q 279 865 277 861 q 286 874 281 869 z "},"˚":{"ha":694,"x_min":227,"x_max":468,"o":"m 279 852 q 298 804 279 824 q 347 785 318 785 q 395 804 375 785 q 414 852 414 824 q 394 900 414 880 q 347 920 374 920 q 299 900 319 920 q 279 852 279 880 m 227 852 q 262 938 227 903 q 347 972 296 972 q 433 938 398 972 q 468 852 468 903 q 433 767 468 802 q 347 732 398 732 q 262 767 296 732 q 227 852 227 802 z "},"˛":{"ha":694,"x_min":250,"x_max":500,"o":"m 434 0 q 359 -81 386 -42 q 332 -157 332 -120 q 351 -208 332 -189 q 400 -227 369 -227 q 447 -217 427 -227 q 481 -184 467 -206 l 500 -195 q 438 -260 475 -237 q 357 -283 401 -283 q 280 -259 310 -283 q 250 -198 250 -235 q 291 -92 250 -146 q 401 0 332 -37 l 434 0 z "},"˜":{"ha":694,"x_min":159,"x_max":548,"o":"m 548 937 q 502 833 534 867 q 416 798 469 798 l 413 798 q 336 814 379 798 q 259 830 292 830 q 218 816 233 830 q 195 768 203 802 l 159 768 q 205 875 172 840 q 292 911 238 911 q 369 895 323 910 q 445 879 412 879 l 448 879 q 487 892 472 879 q 511 937 502 906 l 548 937 z "},"˝":{"ha":694,"x_min":0,"x_max":0,"o":""},"–":{"ha":751,"x_min":38,"x_max":713,"o":"m 38 284 l 38 366 l 713 366 l 713 284 l 38 284 z "},"—":{"ha":1389,"x_min":0,"x_max":1389,"o":"m 0 284 l 0 366 l 1389 366 l 1389 284 l 0 284 z "},"‘":{"ha":378,"x_min":0,"x_max":0,"o":""},"’":{"ha":378,"x_min":0,"x_max":0,"o":""},"‚":{"ha":378,"x_min":0,"x_max":0,"o":""},"“":{"ha":617,"x_min":0,"x_max":0,"o":""},"”":{"ha":617,"x_min":0,"x_max":0,"o":""},"„":{"ha":617,"x_min":0,"x_max":0,"o":""},"†":{"ha":688,"x_min":48,"x_max":640,"o":"m 330 693 q 293 814 324 759 q 254 901 254 882 q 279 955 254 935 q 344 975 303 975 q 408 956 382 975 q 433 907 433 937 q 396 814 433 886 q 359 693 365 757 q 479 730 424 699 q 566 768 547 768 q 620 744 600 768 q 640 679 640 720 q 622 615 640 640 q 572 589 603 589 q 480 627 551 589 q 359 665 422 658 q 433 477 364 546 q 357 -183 361 165 l 332 -183 q 254 477 328 165 q 330 665 323 546 q 209 628 264 659 q 121 589 140 589 q 68 614 88 589 q 48 679 48 638 q 67 743 48 718 q 115 768 85 768 q 208 730 137 768 q 330 693 266 699 z "},"‡":{"ha":688,"x_min":47,"x_max":640,"o":"m 358 126 q 479 165 422 134 q 572 202 550 202 q 621 177 602 202 q 640 113 640 151 q 619 47 640 72 q 566 23 599 23 q 478 62 547 23 q 358 98 423 93 q 395 -23 364 35 q 433 -116 433 -94 q 407 -164 433 -146 q 343 -183 382 -183 q 278 -163 302 -183 q 254 -110 254 -143 q 292 -22 254 -91 q 329 98 323 33 q 208 61 265 92 q 115 23 136 23 q 66 48 85 23 q 47 113 47 74 q 67 178 47 153 q 121 202 87 202 q 208 163 140 202 q 329 126 264 133 q 254 396 323 279 q 329 665 323 512 q 208 628 264 659 q 121 589 140 589 q 67 614 87 589 q 47 679 47 638 q 66 743 47 718 q 115 768 85 768 q 208 730 136 768 q 329 693 265 699 q 292 814 323 759 q 254 901 254 882 q 278 955 254 935 q 343 975 302 975 q 407 956 382 975 q 433 907 433 937 q 395 814 433 886 q 358 693 364 757 q 478 730 423 699 q 566 768 547 768 q 619 744 599 768 q 640 679 640 720 q 621 615 640 640 q 572 589 602 589 q 479 627 550 589 q 358 665 422 658 q 433 396 363 512 q 358 126 363 279 z "},"•":{"ha":694,"x_min":146,"x_max":548,"o":"m 146 487 q 205 629 146 570 q 348 687 264 687 q 489 628 431 687 q 548 487 548 570 q 489 345 548 404 q 347 286 429 286 q 205 345 263 286 q 146 487 146 404 z "},"…":{"ha":1389,"x_min":87,"x_max":1183,"o":"m 98 113 l 154 170 q 174 180 164 180 q 195 169 182 180 l 249 111 q 257 91 257 100 q 248 70 257 81 l 193 10 q 174 -3 180 -3 q 154 6 163 -3 l 94 75 q 87 92 87 83 q 98 113 87 102 m 562 113 l 617 170 q 637 180 627 180 q 658 169 646 180 l 712 111 q 720 91 720 100 q 711 70 720 81 l 656 10 q 637 -3 643 -3 q 617 6 626 -3 l 557 75 q 551 92 551 83 q 562 113 551 102 m 1025 113 l 1080 170 q 1100 180 1090 180 q 1121 169 1109 180 l 1175 111 q 1183 91 1183 100 q 1174 70 1183 81 l 1120 10 q 1100 -3 1106 -3 q 1080 6 1089 -3 l 1021 75 q 1014 92 1014 83 q 1025 113 1014 102 z "},"‹":{"ha":428,"x_min":118,"x_max":359,"o":"m 118 325 l 350 530 l 359 530 l 359 505 l 220 325 l 359 144 l 359 119 l 350 119 l 118 325 z "},"›":{"ha":428,"x_min":68,"x_max":310,"o":"m 78 119 l 68 119 l 68 144 l 208 325 l 68 505 l 68 530 l 78 530 l 310 325 l 78 119 z "},"⁄":{"ha":232,"x_min":-232,"x_max":463,"o":"m -232 -20 l 406 971 l 463 971 l -174 -20 l -232 -20 z "},"∕":{"ha":232,"x_min":-232,"x_max":463,"o":"m -232 -20 l 406 971 l 463 971 l -174 -20 l -232 -20 z "},"₣":{"ha":688,"x_min":33,"x_max":723,"o":"m 168 242 l 36 242 l 36 283 l 168 283 l 168 779 q 98 939 168 939 l 33 939 l 33 972 l 653 972 l 723 816 l 690 816 q 561 939 650 939 l 347 939 q 277 779 277 939 l 277 541 l 522 541 q 590 583 590 541 l 590 623 l 624 623 l 624 391 l 590 391 l 590 431 q 522 473 590 473 l 277 473 l 277 283 l 409 283 l 409 242 l 277 242 l 277 193 q 347 34 277 34 l 412 34 l 412 0 l 33 0 l 33 34 l 98 34 q 168 193 168 34 l 168 242 z "},"₤":{"ha":688,"x_min":52,"x_max":635,"o":"m 507 913 q 399 935 458 935 l 397 935 q 269 866 330 935 q 212 703 212 803 q 212 682 212 692 q 235 538 212 610 l 492 538 l 492 497 l 248 497 q 266 456 256 477 l 505 456 l 505 416 l 287 416 q 311 322 311 373 q 201 68 311 213 l 473 68 q 602 157 562 68 l 635 157 l 565 0 l 77 0 l 78 34 q 205 317 205 195 q 182 414 205 370 l 180 416 l 64 416 l 64 456 l 161 456 q 143 497 151 477 l 52 497 l 52 538 l 128 538 q 104 669 104 610 q 188 904 104 822 q 398 986 271 986 q 524 977 449 986 q 599 954 599 967 l 599 844 l 559 844 q 507 913 556 886 z "},"₧":{"ha":1375,"x_min":33,"x_max":1334,"o":"m 277 939 l 277 490 q 282 478 279 484 q 355 374 310 409 q 434 345 394 345 q 447 345 441 345 q 533 396 493 351 q 592 516 573 441 q 607 637 607 575 q 606 669 607 654 q 573 818 602 748 q 499 916 544 887 q 423 939 461 939 q 409 939 416 939 l 277 939 m 1015 616 l 893 616 l 893 151 q 916 71 893 96 q 971 45 935 50 l 923 176 l 956 176 q 1034 58 994 88 q 1120 28 1072 28 l 1124 28 q 1227 64 1187 28 q 1267 156 1267 100 q 1091 309 1267 225 q 994 385 1023 345 q 964 484 964 426 q 1014 615 964 566 l 1015 616 m 705 617 q 672 486 700 549 q 576 365 638 408 q 448 322 515 322 q 318 366 380 322 q 277 400 296 380 l 277 193 q 347 34 277 34 l 412 34 l 412 0 l 33 0 l 33 34 l 98 34 q 168 193 168 34 l 168 779 q 98 939 168 939 l 33 939 l 33 972 l 452 972 q 574 930 514 971 q 671 810 636 888 q 706 650 705 734 l 713 650 q 859 890 859 650 l 893 890 l 893 650 l 1069 650 q 1143 663 1097 663 l 1145 663 q 1235 654 1181 663 q 1289 631 1289 645 l 1289 524 l 1261 524 q 1216 597 1258 568 q 1126 625 1175 625 q 1056 601 1082 625 q 1030 535 1030 576 q 1190 386 1030 462 q 1303 306 1272 349 q 1334 202 1334 264 q 1278 45 1334 107 q 1123 -13 1208 -12 q 1052 -5 1084 -13 q 1014 -1 1033 -1 q 989 -3 1002 -1 q 949 -7 970 -7 q 832 32 865 -7 q 793 151 798 71 l 792 151 l 792 617 l 705 617 z "},"€":{"ha":688,"x_min":-30,"x_max":724,"o":"m 95 252 q 43 443 53 344 l -30 443 l -18 484 l 41 484 l 41 503 q 41 524 41 514 l -7 524 l 5 565 l 44 565 q 96 755 54 663 q 249 941 151 876 q 451 1006 347 1006 q 510 1001 480 1006 q 566 981 537 994 q 576 977 571 977 q 600 1008 590 977 l 627 1008 l 684 817 l 657 817 q 564 937 624 907 q 509 959 534 952 l 509 961 q 440 972 475 972 q 417 970 429 972 q 264 893 336 962 q 157 708 192 825 q 131 565 136 637 l 610 565 l 598 524 l 129 524 q 130 484 129 504 l 587 484 l 576 443 l 134 443 q 190 241 145 336 q 321 81 240 134 q 467 34 390 35 q 641 96 593 36 q 691 221 691 157 l 724 221 l 724 124 q 648 38 724 77 q 467 0 577 1 q 247 66 345 0 q 95 252 149 133 z "},"№":{"ha":1540,"x_min":0,"x_max":0,"o":""},"™":{"ha":1015,"x_min":0,"x_max":0,"o":""},"∂":{"ha":688,"x_min":52,"x_max":635,"o":"m 157 364 q 161 311 157 336 q 202 155 170 228 q 283 43 235 81 q 370 7 326 7 q 378 7 374 7 q 465 55 426 11 q 519 177 504 100 q 530 278 530 227 q 527 336 530 307 q 485 493 517 418 q 404 605 452 567 q 317 639 359 639 l 309 639 q 224 592 263 635 q 168 471 184 548 q 157 364 157 414 m 635 323 q 597 153 635 234 q 489 28 559 73 q 344 -17 420 -17 q 198 28 268 -17 q 91 153 129 73 q 52 323 52 234 q 92 494 52 412 q 201 619 131 575 q 344 663 271 663 q 488 619 418 663 q 524 591 507 607 q 366 847 467 751 q 144 952 264 943 l 144 989 q 494 796 352 989 q 635 323 635 603 z "},"∆":{"ha":733,"x_min":4,"x_max":728,"o":"m 349 810 l 73 83 l 616 83 l 349 810 m 371 972 l 728 0 l 4 0 l 371 972 z "},"∏":{"ha":1027,"x_min":33,"x_max":995,"o":"m 347 939 q 277 779 277 939 l 277 -90 q 347 -249 277 -249 l 412 -249 l 412 -283 l 33 -283 l 33 -249 l 98 -249 q 168 -90 168 -249 l 168 779 q 98 939 168 939 l 33 939 l 33 972 l 995 972 l 995 939 l 929 939 q 860 779 860 939 l 860 -90 q 929 -249 860 -249 l 995 -249 l 995 -283 l 615 -283 l 615 -249 l 680 -249 q 750 -90 750 -249 l 750 779 q 680 939 750 939 l 347 939 z "},"∑":{"ha":818,"x_min":81,"x_max":776,"o":"m 718 372 l 184 -248 l 614 -248 q 743 -125 703 -248 l 776 -125 l 706 -282 l 81 -282 l 81 -248 q 153 -212 123 -248 l 603 317 l 153 900 q 81 939 123 939 l 81 972 l 706 972 l 776 815 l 743 815 q 614 939 703 939 l 286 939 l 718 372 z "},"−":{"ha":688,"x_min":59,"x_max":629,"o":"m 59 439 l 59 534 l 628 534 l 629 533 l 629 439 l 59 439 z "},"√":{"ha":688,"x_min":12,"x_max":715,"o":"m 123 0 l 12 243 l 62 267 l 119 142 l 613 1139 l 715 1139 l 715 1098 l 666 1098 l 123 0 z "},"∞":{"ha":688,"x_min":45,"x_max":645,"o":"m 298 512 q 248 602 288 582 q 191 617 216 617 q 175 616 182 617 q 112 586 142 609 q 68 528 83 562 q 54 467 54 497 l 54 462 q 73 401 56 429 q 121 362 90 374 q 163 355 141 355 q 185 357 174 355 q 247 386 217 363 q 298 512 276 409 m 316 466 q 380 362 324 401 q 463 330 427 330 q 477 331 471 330 q 557 366 519 339 q 614 435 595 393 q 632 508 632 471 l 632 515 q 608 589 631 556 q 546 635 585 622 q 494 644 521 644 q 465 642 479 644 q 378 600 419 635 q 316 466 338 564 m 305 561 q 319 608 311 585 q 384 701 342 667 q 471 734 425 734 q 557 701 516 734 q 622 610 599 669 q 645 486 645 551 q 622 363 645 422 q 557 271 599 304 q 471 239 516 239 q 384 272 425 239 q 319 364 342 305 q 305 412 311 388 q 297 384 302 397 q 247 307 279 334 q 180 280 215 280 q 112 308 144 280 q 62 385 79 336 q 45 486 45 434 q 62 587 45 538 q 112 665 79 637 q 180 692 144 692 q 247 665 215 692 q 297 589 279 638 q 305 561 302 575 z "},"∫":{"ha":451,"x_min":-49,"x_max":492,"o":"m -8 -191 q -49 -171 -49 -191 l -49 -63 l -24 -63 q -1 -107 -24 -92 q 42 -121 22 -121 l 43 -121 q 121 -12 98 -121 q 148 203 142 98 l 195 701 l 201 743 q 292 1034 219 904 q 451 1164 366 1164 q 492 1144 492 1164 l 492 1036 l 467 1036 q 444 1080 467 1065 q 401 1095 420 1095 q 322 989 353 1095 q 289 743 292 884 l 239 222 q 151 -62 226 66 q -8 -191 76 -191 z "},"≈":{"ha":688,"x_min":64,"x_max":626,"o":"m 626 714 l 626 608 q 543 542 583 559 q 465 525 503 525 q 344 558 424 525 q 224 591 264 591 q 152 572 190 591 q 64 496 113 553 l 64 602 q 147 669 107 651 q 224 686 187 686 q 348 653 268 686 q 465 619 427 619 q 538 638 500 619 q 626 714 576 657 m 626 478 l 626 372 q 543 306 583 323 q 465 289 503 289 q 344 322 424 289 q 224 355 264 355 q 152 336 190 355 q 64 260 113 317 l 64 366 q 147 433 107 415 q 224 450 187 450 q 348 417 268 450 q 465 383 427 383 q 538 402 500 383 q 626 478 576 421 z "},"≤":{"ha":688,"x_min":59,"x_max":629,"o":"m 629 728 l 205 485 l 629 244 l 629 131 l 59 457 l 59 513 l 629 842 l 629 728 m 59 1 l 59 96 l 628 96 l 629 95 l 629 1 l 59 1 z "},"≥":{"ha":688,"x_min":59,"x_max":629,"o":"m 59 842 l 629 513 l 629 457 l 59 131 l 59 244 l 483 485 l 59 728 l 59 842 m 59 1 l 59 96 l 628 96 l 629 96 l 629 1 l 59 1 z "},"":{"ha":728,"x_min":0,"x_max":0,"o":""},"ﬁ":{"ha":728,"x_min":0,"x_max":0,"o":""},"":{"ha":733,"x_min":0,"x_max":0,"o":""},"ﬂ":{"ha":733,"x_min":0,"x_max":0,"o":""}}}
